<svg xmlns="http://www.w3.org/2000/svg" width="40" height="40" viewBox="0 200 50 50"><g data-name="Warstwa 2"><path d="M18 19.61a5.5 5.5 0 0 0 0 11h1.52l5 5.46V14.15l-5 5.46Zm14.5 5.5a7.51 7.51 0 0 0-4.29-6.77l-.27 1a6.49 6.49 0 0 1 .38 11.37l.3 1a7.52 7.52 0 0 0 3.88-6.6"/><path d="m29.54 13.48-.27 1a11.49 11.49 0 0 1 .51 21.12l.29 1a12.48 12.48 0 0 0-.53-23Z"/><path d="M17 217h16v16H17zm0-50h6v16h-6zm10 0h6v16h-6z" style="fill:#fff"/><path d="M25 78.32a4 4 0 0 0 4-4v-8a4 4 0 0 0-8 0v8a4 4 0 0 0 4 4m7-4a6.88 6.88 0 0 1-7 6.76 6.88 6.88 0 0 1-7-6.76h-2.28a9.26 9.26 0 0 0 8 8.91v4.37h2.66v-4.35a9.24 9.24 0 0 0 8-8.91Zm-14 40.53v20.3L34 125Z"/></g></svg>