<svg xmlns="http://www.w3.org/2000/svg" xmlns:xlink="http://www.w3.org/1999/xlink" width="64" height="64" preserveAspectRatio="none"><defs><path id="a" fill="#FFF" fill-opacity="0" d="M-64-64V64H64V-64z"/><path id="b" fill="#546E7A" d="M-51.9 43.3h9.05l-1.2-18.15h-9.1zM-57-31.3h9.05l-1.2-18.15h-9.1z"/><path id="c" fill="#9EADB4" d="M-59.2 49.85h9.1l-7.7-112.7H58.1l-7.7 112.7h9.05L67.8-71.9H-67.5z"/><path id="d" fill="#D7942B" d="m9.8-31.9-60.75-25.25 6.4 107L9.8 79.05zM2.9 12.05q.9 1.55 1 3.75.05 2.2-.75 3.8-.85 1.55-2.05 1.55-1.25 0-2.15-1.55-.9-1.6-.95-3.8-.1-2.2.7-3.75.8-1.6 2.05-1.6 1.2 0 2.15 1.6"/></defs><use xlink:href="#a" transform="matrix(.5 0 0 .5 32 32)"/><use xlink:href="#b" transform="matrix(.42 0 0 .42 31.95 30.5)"/><use xlink:href="#c" transform="matrix(.42 0 0 .42 31.95 30.5)"/><use xlink:href="#d" transform="matrix(.42 0 0 .42 31.95 30.5)"/></svg>