<svg xmlns="http://www.w3.org/2000/svg" xmlns:xlink="http://www.w3.org/1999/xlink" width="36" height="36" preserveAspectRatio="none"><defs><path id="a" fill="#FFF" d="M33 18q0-6.2-4.4-10.6T18 3 7.4 7.4 3 18q0 6.25 4.4 10.6Q11.8 33 18 33t10.6-4.4T33 18m-6.5-8.45Q30 13.05 30 18q0 5-3.5 8.5Q22.95 30 18 30q-5 0-8.5-3.5T6 18q0-4.95 3.5-8.45Q13 6 18 6q4.95 0 8.5 3.55"/><path id="b" fill="#FFF" d="M18.35 28.95q1-.05 1.7-.7.65-.65.7-1.65-.05-1-.75-1.65-.65-.6-1.65-.65-1 .05-1.7.7t-.7 1.65.7 1.6q.7.65 1.7.7m1.8-18.2h-3.6V22.1h3.6z"/></defs><use xlink:href="#a"/><use xlink:href="#b" transform="translate(-.35 -1.85)"/></svg>