<svg xmlns="http://www.w3.org/2000/svg" viewBox="0 0 18 18"><sodipodi:namedview xmlns:inkscape="http://www.inkscape.org/namespaces/inkscape" xmlns:sodipodi="http://sodipodi.sourceforge.net/DTD/sodipodi-0.dtd" inkscape:current-layer="svg2" inkscape:cx="16" inkscape:cy="16" inkscape:pageopacity="0" inkscape:pageshadow="2" inkscape:window-height="480" inkscape:window-maximized="0" inkscape:window-width="640" inkscape:window-x="53" inkscape:window-y="24" inkscape:zoom="7.375" bordercolor="#666666" borderopacity="1" gridtolerance="10" guidetolerance="10" objecttolerance="10" pagecolor="#ffffff" showgrid="false"/><path fill="none" d="M0 0h32v32H0z"/><path d="M28 8h-4l-4-4h-8.001L8 8H4s-4 0-4 4v12c0 4 4 4 4 4h24c4 0 4-4 4-4V12c0-4-4-4-4-4M16 24c-3.316 0-6-2.684-6-6a6 6 0 1 1 6 6" style="fill:#fff;fill-opacity:1;stroke:none;stroke-opacity:1;stroke-width:1px;stroke-miterlimit:4;stroke-dashoffset:0" transform="matrix(.37618 -.0046 .00608 .49777 3.3 1.36)"/></svg>