<svg xmlns="http://www.w3.org/2000/svg" xmlns:xlink="http://www.w3.org/1999/xlink" width="64" height="64" preserveAspectRatio="none"><defs><path id="a" fill="#FFF" fill-opacity="0" d="M-64-64V64H64V-64z"/><path id="d" fill="#6DBB08" d="M45.05-29.05 61.9-56.4 3.15-58.45l1.6 53L60.25.2z"/><path id="e" fill="#5C9C07" d="m31.35-48.7-28.2-9.75 1.6 53 26.55 10z"/><path id="g" fill="#9EADB4" d="M-30.25-56.65q-1 1-.95 2.45l3.85 89q.05 1.45 1.35 2 1.2.5 2.6.4t2.3-.5q.8-.45.75-1.9l-3.85-89q-.05-1.45-1.1-2.45-1.1-1.05-2.55-1.05t-2.4 1.05"/><g id="b"><path fill="#6BB7BC" d="M-40.7 55.8q0 .15.05.25.3 2.85 5.45 5.05 5.35 2.25 12.85 2.25 7.4 0 12.6-2.25 5.05-2.2 5-5.15L-5.1 47q0 2.5-3.3 4.4-.75.45-1.75.9-5.2 2.2-12.6 2.2-7.5 0-12.85-2.2-.95-.45-1.8-.9-3.5-1.9-3.65-4.4z"/><path fill="#91D6DB" d="M-5.1 47v-.15q-.25-2.95-5.5-5.15-.15-.1-.2-.1-1.2-.5-2.5-.75-4.45-1.25-10.1-1.25-5.9 0-10.3 1.3-1.1.3-2.1.7-.1 0-.25.1-5.15 2.2-5 5.25V47q.15 2.5 3.65 4.4.85.45 1.8.9 5.35 2.2 12.85 2.2 7.4 0 12.6-2.2 1-.45 1.75-.9 3.3-1.9 3.3-4.4"/></g><g id="c"><path fill="#6BB7BC" d="M-33.2 36v-.1l-2.5 8.6q-.1.1-.2.35v.45q.1 2.15 3.9 3.8 3.7 1.55 8.95 1.55 5.3 0 8.95-1.55 3.65-1.65 3.55-3.8 0-.3-.1-.6l-3.5-8.9v.2q.05 1.6-2.7 2.8t-6.7 1.2q-3.9 0-6.75-1.2t-2.9-2.8"/><path fill="#91D6DB" d="M-30.55 33.2q-2.4 1.05-2.65 2.45l.05.2-.05.05v.1q.05 1.6 2.9 2.8t6.75 1.2q3.95 0 6.7-1.2t2.7-2.8v-.2l-.1-.2-.05-.05v-.1q-.5-1.3-2.8-2.25-2.85-1.1-6.8-1.1-3.9 0-6.65 1.1"/></g><g id="f"><path fill="#76CB07" d="m-18.95-50.55 1.9 50.45L31.3 4.55l.05-53.25z"/><path fill="#68B109" d="m-18.95-50.55-6.4-.3 2.95 50.2 5.35.55z"/></g></defs><use xlink:href="#a" transform="matrix(.5 0 0 .5 32 32)"/><use xlink:href="#b" transform="matrix(.5 0 0 .5 32 32)"/><use xlink:href="#c" transform="matrix(.5 0 0 .5 32 32)"/><use xlink:href="#d" transform="matrix(.5 0 0 .5 32 32)"/><use xlink:href="#e" transform="matrix(.5 0 0 .5 32 32)"/><use xlink:href="#f" transform="matrix(.5 0 0 .5 32 32)"/><use xlink:href="#g" transform="matrix(.5 0 0 .5 32 32)"/></svg>