<svg xmlns="http://www.w3.org/2000/svg" xml:space="preserve" width="24" height="24" overflow="visible" viewBox="0 -1 24 24"><path fill="none" stroke="#000" stroke-miterlimit="10" stroke-width="3" d="M22.5 14.361c0 .629-.51 1.139-1.138 1.139H2.638c-.628 0-1.138-.51-1.138-1.139V2.639c0-.629.51-1.139 1.138-1.139h18.724c.628 0 1.138.51 1.138 1.139zM8.944 16l-5 5m11.612-5 5 5"/><path fill="none" stroke="#000" stroke-miterlimit="10" d="M6 8.5h12"/><path d="M9.441 11.435a.3.3 0 0 0 .247-.135.293.293 0 0 0-.089-.403L5.834 8.5l3.764-2.397c.136-.087.176-.267.09-.403s-.268-.175-.403-.089l-4.15 2.643a.292.292 0 0 0 0 .492l4.15 2.643a.3.3 0 0 0 .156.046c.097 0-.053 0 0 0m5.118 0a.3.3 0 0 1-.247-.135.293.293 0 0 1 .089-.403L18.166 8.5l-3.764-2.397a.291.291 0 1 1 .314-.492l4.15 2.643a.293.293 0 0 1-.001.492l-4.15 2.643a.3.3 0 0 1-.156.046c-.097 0 .053 0 0 0"/></svg>