<svg xmlns="http://www.w3.org/2000/svg" xml:space="preserve" width="18" height="18" overflow="visible" viewBox="-1.73 -0.066 18 18"><path fill="#FFF" d="M7.903 2.729C7.697 2.321 7.856.566 7.806 0 5.77.949 3.665 2.829 1.66 3.901 3.442 5.11 5.882 7.029 7.806 8.096V5.268c4.898-.297 6.354 7.303 2.342 9.268-3.364 1.649-7.453-.493-7.512-4.195H.002c-.044 2.067.88 3.705 2.049 4.978 1.091 1.188 2.729 2.29 4.391 2.536 4.499.665 8.366-2.924 8.78-6.635.25-2.248-.521-4.474-1.269-5.269-1.44-1.65-3.069-3.111-6.05-3.222"/></svg>