<svg xmlns="http://www.w3.org/2000/svg" xml:space="preserve" width="18" height="18" overflow="visible" viewBox="-0.361 -2.809 18 18"><path fill="#7A7A7A" d="M5.887 9.915c.44-1.858 1.678-3.677 2.755-5.221.263-.378.588-.718.904-1.051 1.012-1.07-2.534.397-2.727-.048.571 1.319-.232 2.787-.587 4.058-.888 3.178 1.67 5.217 4.725 4.788 3.407-.478 4.841-3.183 6.418-5.855 1.562-2.647-4.325-2.425-5.486-.457-.604 1.024-1.08 2.122-1.899 2.998q2.316.378 1.905-.998.045-.521.18-1.026c.189-.859.53-1.685.743-2.539.61-2.456-1.145-4.874-3.745-4.531C4.489.637 1.036 6.284.044 10.466c-.613 2.588 5.29 1.781 5.843-.551"/></svg>