<svg xmlns="http://www.w3.org/2000/svg" xml:space="preserve" width="18" height="18" style="overflow:visible" viewBox="-1.853 -0.023 18 18"><path d="M13.747 16.078c-.315-.091-.316-.261-.313-.51a6.9 6.9 0 0 0-.673-3.09c-.678-1.426-1.797-2.418-3.141-3.189-.143-.081-.362-.136-.372-.31-.01-.19.222-.225.361-.308 1.045-.624 1.997-1.356 2.684-2.38.797-1.188 1.152-2.51 1.144-3.938-.001-.158-.091-.348.182-.44.534-.182.768-.618.671-1.15-.085-.474-.467-.749-1.026-.751C11.238.006 9.148.01 7.148.01V.001c-1 0-2.638-.004-3.975.001C2.367.006 1.581-.001.777.04.347.062.08.381.016.793c-.073.481.108.932.523 1.063.342.108.334.309.338.577.031 2.003.707 3.729 2.224 5.082.515.459 1.062.867 1.683 1.18.444.224.428.315-.014.569-.135.079-.272.153-.404.235-1.039.645-1.945 1.424-2.562 2.502a6.87 6.87 0 0 0-.919 3.611c.005.231-.02.374-.292.445-.344.09-.51.387-.568.726-.119.691.313 1.153 1.094 1.155q5.28.01 10.559.009c.61 0 1.221.004 1.829-.038.448-.031.728-.348.786-.783.062-.48-.131-.928-.546-1.048m-1.552-.106c-3.364-.009-6.728-.013-10.091 0-.429.002-.339-.278-.332-.493.068-2.028.864-3.688 2.532-4.886.378-.271.796-.488 1.183-.75.759-.513.783-1.124.067-1.693-.549-.435-1.213-.699-1.738-1.171C2.444 5.746 1.759 4.213 1.76 2.366c0-.304.078-.393.383-.39 1.675.014 3.004.007 5.004.007v-.008c1 0 3.346.008 5.008-.006.291-.003.399.085.395.371-.037 2.277-.969 4.047-2.924 5.25-.275.17-.562.318-.829.5-.767.522-.764 1.232-.001 1.754.48.328 1.002.59 1.464.952 1.579 1.238 2.267 2.88 2.275 4.85.001.25-.087.327-.34.326" style="fill:#7a7a7a"/><path d="M8.694 12.491c-.068-.074-.167-.122-.257-.175-.361-.213-.542-.546-.635-.938-.167-.711-.198-1.435-.211-2.162-.013-.67.271-1.17.788-1.564.317-.243.631-.489.973-.755A7.7 7.7 0 0 1 8.055 5.86c-.531-.542-1.119-.633-1.813-.378-.728.269-1.465.533-2.276.335.025.206.15.307.262.41.542.505 1.127.959 1.725 1.394.534.389.809.894.77 1.565-.033.544-.029 1.091-.065 1.635a3.4 3.4 0 0 1-.28 1.127c-.118.269-.982.747-1.731 1.017-.546.197-1.981 1.306-2.189 1.996-.077.256-.031.395.304.386.948-.024 1.896-.009 2.845-.01 1.987-.001 3.975-.005 5.963.002.249.001.332-.052.308-.323-.075-.863-.396-1.31-1.238-1.531-.728-.191-1.418-.423-1.946-.994" style="fill:#7a7a7a"/></svg>