<svg xmlns="http://www.w3.org/2000/svg" xml:space="preserve" width="18" height="18" overflow="visible" viewBox="-2.666 -4.267 18 18"><path fill="#7A7A7A" d="M.981 8.521c.478-2.016 1.733-3.963 2.903-5.641.447-.64 2.196-3.131 2.878-1.557.64 1.478-.17 3.056-.567 4.477-.539 1.927.37 3.72 2.549 3.414 2.003-.28 2.998-2.957 3.874-4.442.26-.441-.721-.404-.914-.076-.693 1.174-1.254 2.391-2.197 3.399q-2.731.632-2.518-1.36.044-.521.18-1.026c.189-.859.53-1.685.743-2.539.247-.995-.078-3.354-1.569-3.157-1.518.2-2.534 1.647-3.372 2.792C1.733 4.493.496 6.553.007 8.612c-.102.432.882.297.974-.091"/></svg>