<svg xmlns="http://www.w3.org/2000/svg" xml:space="preserve" width="18" height="18" overflow="visible" viewBox="-1.35 -3.458 18 18"><path fill="#FFF" d="M3.924 9.357c.456-1.922 1.7-3.79 2.814-5.389.303-.434.66-.829 1.023-1.213.879-.93-1.147-.489-.966-.069.599 1.383-.207 2.895-.579 4.226-.751 2.69 1.133 4.62 3.854 4.238 2.877-.403 4.087-3.063 5.401-5.29 1.042-1.765-2.883-1.617-3.657-.305-.64 1.084-1.15 2.23-2.019 3.159.384-.411.192-1.606.315-2.17.189-.859.53-1.685.743-2.539.474-1.907-.67-4.272-2.875-3.981C3.96.553.876 6.141.028 9.724c-.407 1.726 3.528 1.188 3.896-.367"/></svg>