<svg xmlns="http://www.w3.org/2000/svg" xml:space="preserve" width="18" height="18" overflow="visible" viewBox="-2.338 -4.107 18 18"><path fill="#FFF" d="M1.962 8.8c.471-1.985 1.722-3.905 2.874-5.557.313-.449 1.536-2.392 1.938-1.465.626 1.446-.183 3.002-.571 4.393-.612 2.187.616 4.021 2.984 3.689 2.309-.324 3.354-2.981 4.383-4.726.521-.883-1.442-.809-1.829-.152-.675 1.145-1.219 2.338-2.137 3.319Q7.77 8.464 7.97 7.014q.045-.522.18-1.027c.189-.859.53-1.685.743-2.539.326-1.312-.25-3.664-2.004-3.433C3.47.467.717 6.022.015 8.983c-.204.863 1.763.594 1.947-.183"/></svg>